<svg xmlns="http://www.w3.org/2000/svg" xmlns:xlink="http://www.w3.org/1999/xlink" width="500" zoomAndPan="magnify" viewBox="0 0 375 374.999991" height="500" preserveAspectRatio="xMidYMid meet" version="1.0">
  <rect x="-37.5" width="450" fill="#ffffff" y="-37.499999" height="449.999989" fill-opacity="0.5" />
  <rect x="-37.5" width="450" fill="#ffffff" y="-37.499999" height="449.999989" fill-opacity="0.5" />
  <g fill="#000000" fill-opacity="0.5">
    <g transform="translate(67.872617, 264.851621)">
      <g>
        <path d="M 25.78125 -40.84375 L 16.734375 -45.140625 L 0.953125 -41.0625 L -5.6875 -31.8125 L 0.5 -7.9375 L 11.1875 -2.90625 L 26.3125 -6.828125 C 27.320312 -8.222656 28.34375 -9.625 29.375 -11.03125 C 30.40625 -12.445312 31.414062 -13.863281 32.40625 -15.28125 L 30.609375 -22.234375 L 20.390625 -19.578125 L 20.34375 -15.296875 L 12.859375 -13.359375 L 10.875 -14.25 L 6.515625 -31.078125 L 7.765625 -32.734375 L 15.3125 -34.6875 L 17.421875 -30.96875 L 27.640625 -33.625 Z M 25.78125 -40.84375 " />
      </g>
    </g>
  </g>
  <g fill="#000000" fill-opacity="0.5">
    <g transform="translate(102.995395, 255.6599)">
      <g>
        <path d="M 34.109375 -12.75 L 29.96875 -37.96875 L 20.71875 -43.4375 L 4.171875 -40.71875 L -2.828125 -32.578125 L 1.3125 -7.359375 L 10.859375 -1.78125 L 26.78125 -4.40625 C 28 -5.789062 29.21875 -7.179688 30.4375 -8.578125 C 31.664062 -9.984375 32.890625 -11.375 34.109375 -12.75 Z M 17.4375 -33 L 19.15625 -32.078125 L 22 -14.765625 L 20.640625 -13.234375 L 13.90625 -12.125 L 12.140625 -13.140625 L 9.296875 -30.453125 L 10.59375 -31.875 Z M 17.4375 -33 " />
      </g>
    </g>
  </g>
  <g fill="#000000" fill-opacity="0.5">
    <g transform="translate(139.014187, 249.446134)">
      <g>
        <path d="M 24.375 -41.078125 L 24.90625 -32.453125 L 29.234375 -31.59375 L 29.9375 -20.28125 L 16.9375 -40.625 L 0.046875 -39.578125 L 0.578125 -30.953125 L 4.90625 -30.09375 L 6.15625 -10.109375 L 1.953125 -8.71875 L 2.484375 -0.15625 L 20.890625 -1.296875 L 20.359375 -9.859375 L 16.015625 -10.71875 L 15.25 -22.984375 L 29.609375 -1.828125 L 41 -2.53125 L 39.15625 -32.203125 L 43.359375 -33.59375 L 42.828125 -42.21875 Z M 24.375 -41.078125 " />
      </g>
    </g>
  </g>
  <g fill="#000000" fill-opacity="0.5">
    <g transform="translate(183.4853, 246.668026)">
      <g>
        <path d="M 38.25 -7.953125 L 32.015625 -38.0625 L 9.25 -39.109375 L 8.859375 -30.484375 L 12.453125 -29.1875 L 5.796875 -9.4375 L 1.40625 -8.515625 L 1.015625 0.046875 L 17.921875 0.828125 L 18.3125 -7.734375 L 15.59375 -8.984375 L 16.734375 -12.453125 L 25.234375 -12.0625 L 26.078125 -8.515625 L 23.046875 -7.515625 L 22.65625 1.046875 L 42.671875 1.953125 L 43.0625 -6.609375 Z M 21.5625 -27.875 L 23.6875 -18.90625 L 18.671875 -19.140625 Z M 21.5625 -27.875 " />
      </g>
    </g>
  </g>
  <g fill="#000000" fill-opacity="0.5">
    <g transform="translate(225.418412, 248.428771)">
      <g>
        <path d="M 32.59375 -34.921875 L 31.265625 -26.390625 L 35.328125 -24.625 L 33.59375 -13.40625 L 25.21875 -36.0625 L 8.5 -38.65625 L 7.171875 -30.125 L 11.234375 -28.359375 L 8.171875 -8.5625 L 3.765625 -8.109375 L 2.453125 0.375 L 20.6875 3.203125 L 22 -5.28125 L 17.921875 -7.046875 L 19.796875 -19.1875 L 29.328125 4.546875 L 40.59375 6.28125 L 45.140625 -23.109375 L 49.546875 -23.5625 L 50.875 -32.09375 Z M 32.59375 -34.921875 " />
      </g>
    </g>
  </g>
  <g fill="#000000" fill-opacity="0.5">
    <g transform="translate(269.536144, 255.395749)">
      <g>
        <path d="M 42.0625 -23.234375 L 36.234375 -31.40625 L 19.546875 -35.734375 L 10.484375 -31.4375 L 7.765625 -21 L 12.890625 -13.96875 L 25.4375 -8.375 L 26.234375 -7.1875 L 25.5625 -4.625 L 23.890625 -3.8125 L 15.921875 -5.890625 L 15.875 -10.171875 L 5.640625 -12.828125 L 3.84375 -5.875 L 9.9375 2.578125 L 26.375 6.84375 L 35.84375 2.4375 L 38.671875 -8.484375 L 33.59375 -15.125 L 21 -20.71875 L 20.03125 -21.96875 L 20.609375 -24.203125 L 22.3125 -24.921875 L 29.90625 -22.953125 L 29.96875 -18.671875 L 40.1875 -16.015625 Z M 42.0625 -23.234375 " />
      </g>
    </g>
  </g>
  <g clip-path="url(#6069aeba1d)">
    <path fill="#000000" d="M 169.34375 74.558594 C 172.671875 79.792969 173.007812 85.515625 168.292969 89.957031 C 166.203125 91.925781 163.808594 93.558594 162.070312 95.894531 C 160.222656 98.351562 160.085938 100.734375 161.582031 103.160156 C 162.070312 103.96875 162.496094 104.351562 163.410156 103.570312 C 164.234375 102.882812 165.316406 102.441406 166.371094 102.535156 C 167.867188 102.65625 168.796875 101.96875 169.789062 100.992188 C 174.363281 96.566406 179.917969 94.046875 186.128906 92.902344 C 187.089844 92.71875 188.019531 92.917969 188.964844 93.101562 C 195.160156 94.351562 200.589844 97.101562 205.074219 101.601562 C 205.671875 102.214844 206.25 102.535156 207.148438 102.488281 C 208.554688 102.394531 209.925781 102.839844 211.007812 103.722656 C 211.648438 104.242188 211.957031 104.058594 212.367188 103.464844 C 213.878906 101.34375 213.984375 98.839844 212.582031 96.582031 C 211.558594 94.933594 210.109375 93.667969 208.660156 92.414062 C 207.121094 91.101562 205.625 89.757812 204.328125 88.1875 C 201.640625 84.921875 201.398438 79.535156 204.863281 74.636719 C 205.089844 76.621094 205.320312 78.511719 206.371094 80.175781 C 207.972656 82.722656 210.324219 84.296875 213.101562 85.289062 C 214.046875 85.625 215.023438 85.898438 216 86.128906 C 224.558594 88.113281 228.828125 93.195312 229.453125 102.015625 C 230.035156 110.316406 226.355469 116.207031 219.386719 120.328125 C 218.027344 121.136719 216.898438 123.425781 217.097656 125 C 217.460938 127.882812 218.316406 130.722656 217.707031 133.683594 C 217.691406 133.894531 217.753906 134.109375 217.859375 134.277344 C 219.765625 137.878906 220.710938 141.832031 222.007812 145.648438 C 223.046875 148.699219 224.417969 151.554688 226.371094 154.117188 C 226.828125 154.699219 227.089844 155.414062 227.089844 156.164062 C 227.273438 161.855469 225.914062 167.03125 222.023438 171.347656 C 221.429688 172.019531 221.003906 172.828125 220.804688 173.699219 C 220.332031 175.605469 219.660156 177.453125 219.15625 179.359375 C 217.8125 184.457031 213.96875 187.039062 209.300781 189.25 C 209.699219 187.175781 210.703125 185.390625 210.140625 183.28125 C 208.875 189.402344 205.136719 193.449219 199.550781 196.363281 C 200.300781 194.273438 200.863281 192.363281 199.917969 190.089844 C 198.058594 197.035156 193.433594 201.597656 188.355469 205.824219 C 187.515625 206.527344 186.949219 206.601562 186.066406 205.855469 C 180.984375 201.613281 176.347656 197.066406 174.53125 190.304688 C 173.707031 191.953125 173.753906 192.804688 174.792969 196.453125 C 172.105469 194.851562 169.832031 193.21875 167.925781 191.082031 C 165.957031 188.882812 165.226562 186.074219 164.1875 182.949219 C 163.671875 185.390625 164.660156 187.144531 165.136719 189.417969 C 161.75 187.328125 158.285156 186.015625 156.546875 182.445312 C 155.1875 179.652344 154.320312 176.707031 153.585938 173.699219 C 153.371094 172.84375 153.066406 172.113281 152.472656 171.457031 C 148.460938 167.074219 147.070312 161.792969 147.316406 155.996094 C 147.332031 155.460938 147.378906 154.941406 147.742188 154.5 C 150.75 150.777344 152.214844 146.320312 153.601562 141.847656 C 154.363281 139.40625 155.113281 136.964844 156.300781 134.691406 C 156.46875 134.371094 156.683594 134.0625 156.5625 133.636719 C 155.859375 131.347656 156.421875 129.058594 156.851562 126.859375 C 157.21875 124.96875 156.867188 123.335938 156.300781 121.609375 C 156.058594 120.878906 155.449219 120.710938 154.914062 120.40625 C 149.941406 117.488281 146.1875 113.582031 145.058594 107.722656 C 144.21875 103.359375 144.601562 99.023438 146.371094 94.886719 C 148.324219 90.324219 152.03125 87.851562 156.621094 86.507812 C 157.230469 86.324219 157.859375 86.203125 158.484375 86.050781 C 165.332031 84.449219 168.125 81.535156 169.34375 74.558594 Z M 183.105469 98.351562 C 183.03125 99.3125 182.542969 99.847656 182.253906 100.457031 C 178.011719 109.402344 178.378906 118.695312 180.007812 128.113281 C 180.175781 129.058594 180.847656 128.890625 181.457031 128.953125 C 187.257812 129.53125 193.039062 129.226562 198.773438 128.21875 C 203.183594 127.441406 207.515625 126.328125 210.980469 123.183594 C 211.925781 122.328125 212.597656 121.367188 212.335938 119.992188 C 210.09375 108.011719 202.449219 97.910156 189.042969 94.996094 C 187.699219 94.703125 186.296875 94.71875 184.953125 95.023438 C 172.839844 97.695312 164.386719 106.820312 161.808594 119.839844 C 161.472656 121.519531 162.390625 122.585938 163.640625 123.71875 C 163.808594 123.105469 163.945312 122.695312 164.035156 122.296875 C 164.890625 118.726562 166.050781 115.246094 167.515625 111.890625 C 170.582031 104.960938 176.089844 100.945312 183.105469 98.351562 Z M 214.839844 123.609375 L 214.367188 123.351562 C 214.046875 123.777344 213.769531 124.21875 213.421875 124.617188 C 210.476562 127.867188 206.890625 129.972656 202.558594 130.84375 C 193.070312 132.722656 183.5625 132.75 174.015625 131.363281 C 168.414062 130.554688 163.671875 128.3125 160.023438 123.898438 C 159.902344 123.746094 159.734375 123.5625 159.335938 123.777344 C 158.652344 125.839844 158.636719 128.144531 158.195312 130.355469 C 157.78125 132.429688 158.726562 133.683594 160.144531 134.828125 C 160.464844 135.101562 160.816406 135.363281 161.167969 135.589844 C 167.667969 139.558594 174.667969 142.03125 182.328125 142.261719 C 183.824219 142.304688 184.160156 142.71875 184.144531 144.152344 C 184.082031 148.808594 183.167969 153.339844 182.328125 157.886719 C 182.207031 158.558594 181.777344 159.277344 182.574219 159.933594 C 184.007812 161.109375 185.320312 162.449219 186.460938 163.917969 C 186.980469 164.574219 187.210938 164.3125 187.636719 163.808594 C 188.539062 162.757812 189.390625 161.640625 190.476562 160.804688 C 191.773438 159.796875 191.878906 158.726562 191.574219 157.214844 C 190.65625 152.789062 189.863281 148.347656 189.835938 143.816406 C 189.820312 142.65625 190.171875 142.246094 191.375 142.261719 C 194.410156 142.289062 197.433594 141.847656 200.332031 140.960938 C 205.59375 139.40625 210.765625 137.636719 215.007812 133.910156 C 215.539062 133.4375 216.089844 132.964844 216.058594 132.21875 C 215.9375 129.332031 215.648438 126.433594 214.839844 123.609375 Z M 221.566406 168.371094 C 224.710938 165.121094 225.65625 161.167969 225.640625 156.894531 C 225.640625 156.46875 225.472656 156.054688 225.199219 155.734375 C 222.328125 152.074219 220.683594 147.832031 219.277344 143.449219 C 218.53125 141.128906 217.785156 138.796875 216.667969 136.613281 C 216.226562 135.742188 215.875 135.515625 215.039062 136.214844 C 213.375 137.636719 211.421875 138.628906 209.4375 139.542969 C 207.683594 140.351562 207.273438 141.359375 208.492188 142.808594 C 211.558594 146.410156 212.734375 150.730469 213.40625 155.230469 C 213.679688 157.03125 214.121094 158.894531 213.40625 161.03125 C 212.183594 159.335938 211.648438 157.566406 210.0625 156.375 C 210.0625 159.476562 210.109375 162.328125 210.046875 165.199219 C 210.019531 166.449219 210.765625 166.511719 211.679688 166.601562 C 212.6875 166.695312 213.023438 166.25 213.023438 165.320312 C 213.023438 165.0625 212.871094 164.648438 213.542969 164.558594 C 215.191406 170.417969 214.730469 176.460938 215.066406 182.445312 C 217.859375 177.574219 219.15625 172.386719 219.261719 166.875 C 219.355469 161.460938 218.164062 156.222656 216.820312 151.019531 C 220.925781 156.117188 222.117188 161.976562 221.566406 168.371094 Z M 161 160.941406 C 160.527344 159.917969 160.558594 159.078125 160.632812 158.222656 C 161.09375 152.652344 162.128906 147.296875 165.851562 142.808594 C 166.917969 141.511719 166.613281 140.75 165.074219 140.046875 C 162.9375 139.085938 160.878906 137.972656 159.125 136.398438 C 158.375 135.726562 158.011719 135.957031 157.613281 136.765625 C 156.683594 138.628906 156.027344 140.582031 155.371094 142.550781 C 154.058594 146.488281 152.960938 150.546875 150.382812 153.859375 C 148.734375 155.964844 148.429688 158.101562 148.992188 160.527344 C 149.238281 161.566406 149.421875 162.617188 149.757812 163.609375 C 150.382812 165.410156 151.3125 167.03125 152.976562 168.691406 C 152.625 165.152344 152.703125 162.023438 153.433594 158.988281 C 154.164062 155.949219 155.753906 153.25 157.644531 150.730469 C 156.210938 156.042969 154.988281 161.351562 155.113281 166.875 C 155.234375 172.402344 156.453125 177.589844 159.277344 182.367188 C 159.519531 176.398438 159.199219 170.417969 160.785156 164.464844 C 161.472656 164.878906 161.398438 165.289062 161.414062 165.640625 C 161.472656 166.695312 162.191406 166.585938 162.90625 166.542969 C 163.65625 166.496094 164.265625 166.34375 164.25 165.367188 C 164.234375 162.3125 164.234375 159.277344 164.234375 156.164062 C 162.878906 157.476562 162.144531 159.199219 161 160.941406 Z M 218.179688 118.496094 C 223.441406 115.613281 227.011719 111.476562 227.441406 105.3125 C 227.988281 97.191406 224.511719 89.730469 215.265625 87.683594 C 214.382812 87.484375 213.527344 87.195312 212.671875 86.9375 C 208.75 85.792969 205.867188 83.53125 204.617188 79.503906 C 204.570312 79.367188 204.527344 79.214844 204.234375 79.367188 C 204.160156 79.824219 204.054688 80.34375 203.992188 80.863281 C 203.640625 84.1875 205.121094 86.722656 207.484375 88.84375 C 209.574219 90.722656 211.863281 92.414062 213.710938 94.550781 C 216.167969 97.40625 216.667969 101.558594 214.457031 104.425781 C 213.175781 106.089844 213.296875 107.265625 214.382812 108.714844 C 214.5625 108.972656 214.71875 109.265625 214.839844 109.554688 C 215.679688 111.261719 215.9375 111.355469 217.675781 110.453125 C 218.988281 109.769531 219.964844 108.730469 220.695312 107.476562 C 221.550781 106.042969 222.039062 104.472656 222.390625 102.855469 C 223.03125 99.925781 222.941406 96.992188 222.269531 93.636719 C 223.625 95.46875 224.617188 97.527344 225.214844 99.726562 C 226.785156 105.34375 224.023438 112.742188 219.15625 115.460938 C 217.675781 116.253906 217.371094 117 218.179688 118.496094 Z M 169.679688 78.863281 C 168.125 84.785156 163.730469 86.476562 158.941406 87.683594 C 158.375 87.820312 157.796875 87.957031 157.246094 88.125 C 154.210938 89.074219 151.679688 90.75 149.789062 93.316406 C 143.914062 101.3125 146.339844 112.925781 154.914062 117.855469 C 155.292969 118.070312 155.875 118.816406 156.195312 118.039062 C 156.4375 117.445312 157.019531 116.46875 155.949219 115.949219 C 152.425781 114.269531 150.625 111.171875 149.238281 107.769531 C 147.542969 103.585938 148.839844 96.855469 151.847656 94.046875 C 150.886719 98.078125 151.207031 101.953125 152.65625 105.722656 C 153.511719 107.980469 154.867188 109.84375 157.246094 110.746094 C 158.164062 111.09375 158.804688 111.15625 159.183594 109.980469 C 159.519531 108.988281 160.117188 108.074219 160.664062 107.15625 C 161.0625 106.515625 160.984375 106.105469 160.480469 105.496094 C 157.539062 101.863281 157.660156 97.46875 160.894531 94.078125 C 162.542969 92.355469 164.417969 90.84375 166.203125 89.257812 C 167.242188 88.339844 168.246094 87.378906 168.949219 86.171875 C 170.230469 84.066406 170.703125 81.824219 169.679688 78.863281 Z M 180.558594 168.539062 C 182.3125 167.882812 183.535156 167.351562 184.601562 166.433594 C 185.164062 165.945312 185.289062 165.503906 184.890625 164.800781 C 184.082031 163.320312 183.046875 162.085938 181.640625 161.152344 C 180.957031 160.695312 180.390625 160.191406 180.46875 159.246094 C 180.527344 158.46875 179.996094 158.132812 179.324219 157.964844 C 177.308594 157.429688 175.539062 157.949219 174.015625 159.308594 C 172.183594 160.941406 170.613281 162.816406 169.132812 164.753906 C 167.835938 166.449219 166.125 167.367188 164.144531 167.960938 C 163.488281 168.160156 162.34375 167.867188 162.28125 168.691406 C 162.222656 169.59375 163.320312 169.945312 164.066406 170.296875 C 164.539062 170.523438 165.058594 170.648438 165.59375 170.660156 C 169.574219 170.691406 173.207031 169.699219 176.484375 167.304688 C 178.253906 166.007812 179.871094 164.542969 181.839844 163.078125 C 181.566406 164.96875 181.582031 166.617188 180.558594 168.539062 Z M 211.664062 168.234375 C 208.050781 167.519531 205.808594 165.625 203.929688 163.105469 C 202.863281 161.65625 201.550781 160.390625 200.269531 159.125 C 198.882812 157.75 197.125 157.382812 195.25 157.703125 C 194.394531 157.855469 193.542969 158.148438 193.769531 159.351562 C 193.890625 159.992188 193.449219 160.3125 193.023438 160.648438 C 192.351562 161.183594 191.648438 161.671875 191.054688 162.269531 C 189.789062 163.550781 189.910156 165.855469 191.253906 166.800781 C 191.453125 166.9375 191.742188 167.089844 191.953125 167.042969 C 192.273438 166.984375 192.167969 166.617188 192.183594 166.375 C 192.199219 165.730469 192.136719 165.089844 192.261719 164.464844 C 192.457031 163.519531 192.902344 163.136719 193.738281 164.023438 C 194.625 164.9375 195.523438 165.855469 196.484375 166.695312 C 197.78125 167.824219 199.125 168.953125 200.972656 169.121094 C 201.078125 168.433594 200.070312 168.480469 200.34375 167.625 C 203.839844 169.792969 207.453125 170.019531 211.664062 168.234375 Z M 168.078125 154.605469 C 168.933594 156.515625 169.757812 158.316406 170.582031 160.148438 C 170.734375 160.054688 170.886719 159.964844 171.007812 159.839844 C 173.386719 157.003906 175.964844 154.621094 180.117188 155.75 C 180.648438 155.886719 180.894531 155.554688 181.03125 155.09375 C 181.625 153.292969 181.976562 151.433594 182.265625 149.203125 C 179.308594 151.324219 176.042969 150.929688 172.898438 151.78125 C 173.433594 150.730469 174.441406 150.636719 175.3125 150.136719 C 172.519531 149.097656 171.421875 146.546875 169.605469 144.6875 C 168.675781 145.722656 167.714844 146.65625 166.890625 147.691406 C 165.59375 149.3125 165.789062 150.546875 167.40625 151.769531 C 168.523438 152.605469 169.558594 153.507812 170.261719 154.742188 C 170.597656 155.339844 170.949219 155.964844 170.582031 156.851562 C 169.832031 155.902344 169.375 154.898438 168.078125 154.605469 Z M 203.625 156.773438 C 203.367188 155.492188 203.929688 154.757812 204.449219 154.027344 C 205.257812 152.972656 206.265625 152.074219 207.394531 151.371094 C 208.15625 150.898438 208.277344 150.378906 208.125 149.523438 C 207.804688 147.675781 206.234375 146.761719 205.289062 145.386719 C 204.753906 144.609375 204.402344 144.777344 203.914062 145.449219 C 202.558594 147.265625 201.308594 149.21875 199.035156 150.136719 C 199.675781 150.683594 200.679688 150.5625 201.015625 151.570312 C 199.445312 151.371094 197.949219 151.1875 196.457031 150.972656 C 194.898438 150.746094 193.449219 150.179688 191.832031 149.1875 C 192.289062 151.21875 192.6875 152.914062 193.039062 154.621094 C 193.25 155.613281 193.726562 155.917969 194.730469 155.644531 C 196.972656 155.0625 198.910156 155.78125 200.667969 157.171875 C 201.734375 158.023438 202.605469 159.09375 203.625 160.253906 C 204.511719 158.285156 205.320312 156.5 206.160156 154.605469 C 204.890625 154.910156 204.464844 155.902344 203.625 156.773438 Z M 162.054688 170.492188 C 161.625 174.125 165.683594 186.167969 168.125 188.503906 C 167.53125 183.496094 166.964844 178.582031 167.085938 173.636719 C 167.101562 173.042969 166.796875 172.722656 166.277344 172.644531 C 164.660156 172.371094 163.351562 171.5 162.054688 170.492188 Z M 206.265625 188.519531 C 209.742188 183.023438 211.636719 177.027344 212.582031 170.324219 C 211.164062 171.304688 210.09375 172.25 208.707031 172.460938 C 207.683594 172.628906 207.316406 173.105469 207.300781 174.140625 C 207.257812 176.949219 207.226562 179.757812 206.890625 182.566406 C 206.675781 184.550781 206.492188 186.535156 206.265625 188.519531 Z M 207.972656 104.53125 C 211.878906 109.90625 213.742188 115.765625 215.28125 121.976562 C 216.410156 120.769531 216.394531 119.597656 216.226562 118.453125 C 215.570312 114.195312 214 110.269531 211.742188 106.625 C 210.964844 105.386719 209.851562 104.6875 207.972656 104.53125 Z M 158.941406 121.902344 C 160.390625 115.644531 162.375 109.828125 166.1875 104.472656 C 164.648438 104.6875 163.578125 105.035156 162.921875 106 C 160.191406 109.996094 158.359375 114.375 157.949219 119.246094 C 157.886719 120.101562 157.859375 121.0625 158.941406 121.902344 Z M 202.269531 143.097656 C 200.359375 143.039062 194.761719 144.304688 193.953125 144.960938 C 197.554688 146.519531 201.015625 145.738281 202.269531 143.097656 Z M 171.953125 142.824219 C 174 145.890625 178.070312 146.65625 180.894531 144.609375 Z M 171.953125 142.824219 " fill-opacity="0.5" fill-rule="nonzero" />
  </g>
  <path fill="#000000" d="M 187.285156 161.488281 C 186.15625 160.421875 185.394531 159.460938 184.34375 158.820312 C 183.730469 158.4375 184.050781 157.855469 184.128906 157.367188 C 184.570312 154.484375 185.011719 151.601562 185.472656 148.714844 C 185.820312 146.488281 185.59375 144.257812 185.5 142.03125 C 185.457031 140.949219 185.042969 140.792969 184.050781 140.78125 C 176.714844 140.65625 169.742188 139.039062 163.351562 135.300781 C 159.382812 132.980469 159.109375 132.25 160.34375 127.683594 C 160.453125 127.667969 160.589844 127.609375 160.632812 127.65625 C 166.597656 132.90625 173.90625 134.21875 181.488281 134.691406 C 182.390625 134.75 183.289062 134.707031 184.203125 134.707031 C 186.8125 134.691406 186.875 134.691406 186.921875 137.238281 C 187.089844 144.839844 187.226562 152.4375 187.378906 160.039062 C 187.394531 160.4375 187.332031 160.789062 187.285156 161.488281 Z M 187.285156 161.488281 " fill-opacity="0.5" fill-rule="nonzero" />
  <path stroke-linecap="butt" transform="matrix(0.160511, -0.016283, 0.016283, 0.160511, 153.187569, 253.536955)" fill="none" stroke-linejoin="miter" d="M 114.673495 57.325536 L 89.686351 36.392425 L 36.561189 36.381475 L 8.069884 60.066477 L 8.075455 140.377029 L 37.678172 164.990766 L 88.565202 164.993697 C 92.868293 161.439061 97.222004 157.865224 101.602247 154.269742 C 106.033111 150.65506 110.394153 147.008957 114.661285 143.328992 L 114.670614 119.967033 L 80.308261 119.961241 L 76.61266 133.36072 L 51.448605 133.363269 L 45.930586 128.982685 L 45.927208 72.400306 L 51.274478 68.148497 L 76.633684 68.141409 L 80.310196 81.558662 L 114.672549 81.564454 Z M 114.673495 57.325536 " stroke="#000000" stroke-width="10.336219" stroke-opacity="0.5" stroke-miterlimit="4" />
  <path stroke-linecap="butt" transform="matrix(0.161333, -0.00066419, 0.00066419, 0.161333, 174.683417, 251.371097)" fill="none" stroke-linejoin="miter" d="M 137.455263 64.46212 L 137.44983 36.375832 L 78.105496 36.373642 L 78.11093 64.45993 L 86.352133 68.149915 L 86.367276 129.164968 L 81.604303 133.382511 L 60.249119 133.367232 L 55.302926 129.158141 L 55.311994 68.143188 L 63.752982 64.473457 L 63.747548 36.387169 L 3.31368 36.380493 L 3.319114 64.466781 L 17.274421 68.156078 L 17.272899 144.981693 L 41.548024 165.008352 L 99.415432 165.004462 L 123.492244 144.983164 L 123.493866 68.133337 Z M 137.455263 64.46212 " stroke="#000000" stroke-width="10.336219" stroke-opacity="0.5" stroke-miterlimit="4" />
  <path stroke-linecap="butt" transform="matrix(0.160577, 0.0156221, -0.0156221, 0.160577, 199.234328, 251.388675)" fill="none" stroke-linejoin="miter" d="M 129.154983 58.820643 L 102.547817 36.377319 L 8.063746 36.374063 L 8.072593 64.470199 L 22.077054 68.143305 L 22.072907 133.362798 L 8.079969 137.059472 L 8.074749 165.011018 L 74.070078 164.988338 L 74.074644 137.28012 L 60.070183 133.607014 L 60.05663 120.715338 L 102.554949 120.716269 L 129.144831 98.47367 Z M 86.347335 68.142492 L 91.150543 72.0053 L 91.161752 84.872877 L 86.349349 88.917046 L 60.076997 88.918746 L 60.074984 68.144193 Z M 86.347335 68.142492 " stroke="#000000" stroke-width="10.336219" stroke-opacity="0.5" stroke-miterlimit="4" />
  <g fill="#000000" fill-opacity="0.5">
    <g transform="translate(154.506947, 296.751354)">
      <g>
        <path d="M 4.15625 -3.859375 L 4.359375 -5.09375 L 1.484375 -5.5625 L 1.28125 -4.328125 L 1.84375 -4.0625 L 1.375 -1.203125 L 0.765625 -1.140625 L 0.5625 0.09375 L 3.4375 0.5625 L 3.640625 -0.671875 L 3.046875 -0.9375 L 3.515625 -3.796875 Z M 4.15625 -3.859375 " />
      </g>
    </g>
  </g>
  <g fill="#000000" fill-opacity="0.5">
    <g transform="translate(158.569568, 297.420809)">
      <g>
        <path d="M 6.25 -2.546875 L 6.5625 -4.90625 L 0.90625 -5.671875 L 0.59375 -3.3125 L 1.78125 -3.15625 L 2.09375 -4.15625 L 2.71875 -4.078125 L 2.3125 -1.109375 L 1.609375 -1.046875 L 1.4375 0.1875 L 4.5 0.609375 L 4.671875 -0.625 L 4 -0.875 L 4.40625 -3.84375 L 5.015625 -3.765625 L 5.046875 -2.703125 Z M 6.25 -2.546875 " />
      </g>
    </g>
  </g>
  <g fill="#000000" fill-opacity="0.5">
    <g transform="translate(164.552975, 298.228665)">
      <g>
        <path d="M 5.609375 -0.84375 L 4.953125 -5.265625 L 1.65625 -5.59375 L 1.53125 -4.359375 L 2.03125 -4.140625 L 0.921875 -1.328125 L 0.265625 -1.234375 L 0.140625 0.015625 L 2.59375 0.265625 L 2.71875 -0.984375 L 2.328125 -1.1875 L 2.515625 -1.671875 L 3.75 -1.546875 L 3.84375 -1.03125 L 3.40625 -0.921875 L 3.28125 0.328125 L 6.171875 0.625 L 6.296875 -0.625 Z M 3.34375 -3.875 L 3.59375 -2.546875 L 2.859375 -2.609375 Z M 3.34375 -3.875 " />
      </g>
    </g>
  </g>
  <g fill="#000000" fill-opacity="0.5">
    <g transform="translate(170.938435, 298.880546)">
      <g>
        <path d="M 4.265625 -5.453125 L 4.171875 -4.203125 L 4.78125 -4 L 4.671875 -2.375 L 3.203125 -5.53125 L 0.75 -5.6875 L 0.65625 -4.4375 L 1.265625 -4.234375 L 1.078125 -1.34375 L 0.4375 -1.21875 L 0.359375 0.03125 L 3.03125 0.203125 L 3.109375 -1.046875 L 2.515625 -1.25 L 2.640625 -3.03125 L 4.296875 0.28125 L 5.9375 0.390625 L 6.21875 -3.90625 L 6.859375 -4.03125 L 6.953125 -5.28125 Z M 4.265625 -5.453125 " />
      </g>
    </g>
  </g>
  <g fill="#000000" fill-opacity="0.5">
    <g transform="translate(177.720834, 299.334013)">
      <g>
        <path d="M 6.53125 -4.28125 L 6.5625 -5.53125 L 3.859375 -5.625 L 3.828125 -4.375 L 4.203125 -4.1875 L 4.171875 -3.265625 L 2.78125 -3.3125 L 2.8125 -4.234375 L 3.1875 -4.390625 L 3.21875 -5.640625 L 0.53125 -5.71875 L 0.5 -4.46875 L 1.125 -4.28125 L 1.03125 -1.375 L 0.40625 -1.234375 L 0.359375 0.015625 L 3.046875 0.09375 L 3.09375 -1.15625 L 2.71875 -1.328125 L 2.75 -2.328125 L 4.140625 -2.28125 L 4.109375 -1.28125 L 3.734375 -1.140625 L 3.6875 0.109375 L 6.390625 0.203125 L 6.4375 -1.046875 L 5.8125 -1.21875 L 5.90625 -4.125 Z M 6.53125 -4.28125 " />
      </g>
    </g>
  </g>
  <g fill="#000000" fill-opacity="0.5">
    <g transform="translate(184.55384, 299.543218)">
      <g>
        <path d="M 5.5 -1.421875 L 4.375 -5.75 L 1.0625 -5.734375 L 1.0625 -4.484375 L 1.59375 -4.3125 L 0.78125 -1.40625 L 0.140625 -1.25 L 0.140625 0 L 2.609375 -0.015625 L 2.609375 -1.265625 L 2.203125 -1.40625 L 2.34375 -1.921875 L 3.578125 -1.9375 L 3.71875 -1.421875 L 3.296875 -1.265625 L 3.296875 -0.015625 L 6.203125 -0.015625 L 6.203125 -1.265625 Z M 2.921875 -4.203125 L 3.296875 -2.90625 L 2.5625 -2.90625 Z M 2.921875 -4.203125 " />
      </g>
    </g>
  </g>
  <g fill="#000000" fill-opacity="0.5">
    <g transform="translate(190.966773, 299.51648)">
      <g>
        <path d="M 5.28125 -3.90625 L 5.203125 -5.921875 L 0.15625 -5.75 L 0.203125 -4.5 L 0.828125 -4.34375 L 0.9375 -1.4375 L 0.3125 -1.265625 L 0.359375 -0.015625 L 5.421875 -0.1875 L 5.34375 -2.1875 L 4.125 -2.140625 L 4 -1.546875 L 2.625 -1.5 L 2.59375 -2.5 L 3.96875 -2.546875 L 3.921875 -3.53125 L 2.546875 -3.484375 L 2.515625 -4.40625 L 3.890625 -4.453125 L 4.078125 -3.859375 Z M 4 -7.09375 L 3.71875 -7.953125 L 1.34375 -6.953125 L 1.546875 -6.40625 Z M 4 -7.09375 " />
      </g>
    </g>
  </g>
  <g fill="#000000" fill-opacity="0.5">
    <g transform="translate(196.813068, 299.327852)">
      <g>
        <path d="M 7.171875 -5 L 7.078125 -6.25 L 4.578125 -6.078125 L 3.71875 -4.234375 L 2.640625 -5.9375 L -0.046875 -5.75 L 0.046875 -4.5 L 0.671875 -4.359375 L 0.890625 -1.46875 L 0.265625 -1.28125 L 0.359375 -0.03125 L 3.34375 -0.234375 L 3.25 -1.484375 L 2.484375 -1.59375 L 2.34375 -3.53125 L 3.484375 -1.859375 L 4.125 -1.90625 L 5.03125 -3.71875 L 5.171875 -1.78125 L 4.390625 -1.578125 L 4.484375 -0.328125 L 7.484375 -0.53125 L 7.390625 -1.78125 L 6.78125 -1.890625 L 6.5625 -4.78125 Z M 7.171875 -5 " />
      </g>
    </g>
  </g>
  <g fill="#000000" fill-opacity="0.5">
    <g transform="translate(204.729588, 298.728601)">
      <g>
        <path d="M 2.90625 -2.625 L 2.796875 -3.625 L 0.015625 -3.34375 L 0.125 -2.34375 Z M 2.90625 -2.625 " />
      </g>
    </g>
  </g>
  <g fill="#000000" fill-opacity="0.5">
    <g transform="translate(208.283442, 298.377952)">
      <g>
        <path d="M 4.421875 -5.390625 L 3.203125 -6.1875 L 0.703125 -5.859375 L -0.265625 -4.8125 L -0.078125 -3.25 L 0.984375 -2.578125 L 2.96875 -2.5 L 3.140625 -2.375 L 3.1875 -1.984375 L 3.015625 -1.796875 L 1.828125 -1.640625 L 1.59375 -2.21875 L 0.078125 -2.03125 L 0.203125 -1.015625 L 1.46875 -0.1875 L 3.921875 -0.5 L 4.953125 -1.609375 L 4.75 -3.234375 L 3.71875 -3.828125 L 1.71875 -3.90625 L 1.53125 -4.03125 L 1.484375 -4.375 L 1.6875 -4.5625 L 2.796875 -4.703125 L 3.03125 -4.125 L 4.546875 -4.3125 Z M 4.421875 -5.390625 " />
      </g>
    </g>
  </g>
  <g fill="#000000" fill-opacity="0.5">
    <g transform="translate(213.765856, 297.691854)">
      <g>
        <path d="M 4.953125 -5.5625 L 3.609375 -6.375 L -0.53125 -5.734375 L -0.328125 -4.5 L 0.296875 -4.421875 L 0.75 -1.546875 L 0.171875 -1.296875 L 0.359375 -0.0625 L 3.25 -0.515625 L 3.0625 -1.734375 L 2.421875 -1.796875 L 2.34375 -2.34375 L 4.203125 -2.640625 L 5.234375 -3.828125 Z M 3.125 -4.859375 L 3.375 -4.71875 L 3.46875 -4.140625 L 3.265625 -3.9375 L 2.109375 -3.75 L 1.96875 -4.671875 Z M 3.125 -4.859375 " />
      </g>
    </g>
  </g>
  <g clip-path="url(#3709ed3df8)">
    <g clip-path="url(#c11c752715)">
      <g clip-path="url(#118cd0c605)">
        <g clip-path="url(#aeafc103f6)">
          <path fill="#000000" d="M 150.40625 181.65625 C 150.9375 181.253906 151.675781 181.28125 152.152344 181.71875 L 156.871094 186.015625 C 157.507812 186.582031 157.453125 187.589844 156.769531 188.105469 L 150.304688 192.992188 C 149.625 193.507812 148.640625 193.289062 148.257812 192.53125 L 145.421875 186.808594 C 145.132812 186.230469 145.304688 185.515625 145.824219 185.121094 L 146.171875 184.859375 L 130.019531 163.5 L 129.699219 163.742188 C 129.21875 164.105469 128.515625 164.007812 128.152344 163.527344 L 123.371094 157.203125 C 123 156.710938 123.109375 156.019531 123.589844 155.65625 L 123.308594 155.871094 C 122.90625 156.171875 122.335938 156.082031 122.03125 155.683594 L 121.78125 155.351562 C 121.480469 154.949219 121.546875 154.375 121.949219 154.070312 L 122.035156 154.007812 C 119.261719 152.980469 118.761719 149.3125 121.09375 147.550781 C 123.429688 145.785156 126.828125 147.277344 127.050781 150.222656 C 127.449219 149.953125 128.007812 150.035156 128.300781 150.421875 L 128.550781 150.753906 C 128.851562 151.152344 128.769531 151.738281 128.371094 152.042969 L 128.050781 152.285156 C 128.542969 151.910156 129.234375 151.992188 129.609375 152.488281 L 134.390625 158.8125 C 134.753906 159.292969 134.65625 159.992188 134.160156 160.367188 L 133.90625 160.558594 L 150.058594 181.917969 Z M 122.121094 148.910156 C 121.230469 149.582031 121.050781 150.855469 121.722656 151.746094 C 122.363281 152.59375 123.546875 152.765625 124.425781 152.199219 L 124.65625 152.023438 C 125.445312 151.332031 125.597656 150.148438 124.957031 149.300781 C 124.285156 148.410156 123.011719 148.234375 122.121094 148.910156 Z M 150.890625 189.347656 C 151.300781 189.503906 151.460938 189.109375 152.917969 188.085938 C 153.050781 187.988281 153.121094 187.828125 153.105469 187.671875 C 152.808594 185.886719 152.992188 185.539062 152.570312 185.355469 C 152.390625 185.277344 150.589844 184.503906 150.769531 184.582031 C 150.320312 184.410156 150.179688 184.832031 148.734375 185.832031 C 148.597656 185.929688 148.539062 186.101562 148.554688 186.257812 C 148.578125 186.453125 148.816406 188.410156 148.792969 188.214844 C 148.855469 188.675781 149.273438 188.597656 150.890625 189.347656 Z M 136.746094 168.410156 C 137.144531 168.109375 137.089844 167.359375 136.621094 166.742188 C 136.152344 166.121094 135.449219 165.867188 135.050781 166.167969 C 134.648438 166.472656 134.703125 167.21875 135.171875 167.839844 C 135.640625 168.457031 136.34375 168.714844 136.746094 168.410156 Z M 142.558594 177.449219 C 143.027344 178.066406 143.730469 178.324219 144.132812 178.019531 C 144.53125 177.71875 144.476562 176.972656 144.011719 176.351562 C 143.542969 175.730469 142.835938 175.476562 142.4375 175.777344 C 142.035156 176.082031 142.089844 176.828125 142.558594 177.449219 Z M 130.832031 160.433594 C 132.152344 159.4375 128.164062 154.25 126.886719 155.214844 C 126.140625 155.777344 127.273438 157.78125 127.871094 158.574219 C 128.96875 160.023438 130.285156 160.847656 130.832031 160.433594 Z M 130.832031 160.433594 " fill-opacity="0.5" fill-rule="nonzero" />
        </g>
      </g>
    </g>
  </g>
  <g clip-path="url(#3cc95a13f2)">
    <g clip-path="url(#254965bae5)">
      <g clip-path="url(#c52475d877)">
        <g clip-path="url(#a60c407561)">
          <path fill="#000000" d="M 123.386719 179.828125 C 120.375 180.480469 113.261719 181.078125 108.128906 174.039062 C 102.738281 167.160156 105.246094 160.472656 106.691406 157.75 C 106.984375 157.199219 107.761719 157.207031 108.066406 157.746094 C 111.410156 163.597656 118.75 159.71875 120.890625 158.402344 C 121.238281 158.1875 121.683594 158.277344 121.925781 158.601562 L 126.71875 164.9375 C 126.960938 165.257812 126.925781 165.714844 126.628906 165.988281 C 124.777344 167.6875 119.042969 173.695312 123.761719 178.503906 C 124.199219 178.949219 123.996094 179.695312 123.386719 179.828125 Z M 110.316406 169.71875 C 109.386719 170.421875 109.199219 171.746094 109.902344 172.671875 C 110.605469 173.601562 111.929688 173.785156 112.859375 173.078125 C 113.789062 172.375 113.976562 171.050781 113.273438 170.125 C 112.570312 169.195312 111.25 169.015625 110.316406 169.71875 Z M 118.851562 162.730469 C 116.808594 164.039062 113.222656 165.421875 109.230469 162.8125 C 109.0625 162.699219 108.859375 162.890625 108.964844 163.0625 C 110.058594 164.800781 113.398438 168.664062 119.082031 163.023438 C 119.242188 162.863281 119.042969 162.605469 118.851562 162.730469 Z M 121.71875 166.957031 C 121.886719 166.808594 121.695312 166.542969 121.496094 166.65625 C 114.523438 170.585938 117.328125 174.851562 118.703125 176.378906 C 118.835938 176.527344 119.078125 176.382812 119.015625 176.191406 C 117.589844 171.640625 119.898438 168.566406 121.71875 166.957031 Z M 121.71875 166.957031 " fill-opacity="0.5" fill-rule="nonzero" />
        </g>
      </g>
    </g>
  </g>
  <g clip-path="url(#8963776a5e)">
    <g clip-path="url(#44ff3ea08b)">
      <g clip-path="url(#960da346a8)">
        <g clip-path="url(#baae2e932d)">
          <path fill="#000000" d="M 223.546875 181.394531 C 223.019531 180.984375 222.285156 181.003906 221.800781 181.429688 L 217.019531 185.660156 C 216.371094 186.21875 216.414062 187.222656 217.089844 187.75 L 223.480469 192.730469 C 224.15625 193.257812 225.140625 193.050781 225.535156 192.300781 L 228.457031 186.617188 C 228.753906 186.046875 228.59375 185.328125 228.078125 184.925781 L 227.734375 184.660156 L 244.195312 163.539062 L 244.511719 163.785156 C 244.988281 164.15625 245.691406 164.070312 246.0625 163.59375 L 250.9375 157.339844 C 251.316406 156.851562 251.21875 156.164062 250.742188 155.792969 L 251.019531 156.007812 C 251.417969 156.316406 251.988281 156.234375 252.296875 155.839844 L 252.554688 155.511719 C 252.863281 155.117188 252.800781 154.539062 252.40625 154.230469 L 252.320312 154.164062 C 255.109375 153.179688 255.660156 149.519531 253.355469 147.722656 C 251.046875 145.921875 247.625 147.363281 247.359375 150.308594 C 246.964844 150.03125 246.40625 150.105469 246.109375 150.488281 L 245.851562 150.816406 C 245.542969 151.210938 245.617188 151.796875 246.015625 152.105469 L 246.332031 152.355469 C 245.84375 151.972656 245.148438 152.046875 244.769531 152.535156 L 239.894531 158.789062 C 239.523438 159.261719 239.613281 159.964844 240.101562 160.347656 L 240.351562 160.542969 L 223.890625 181.664062 Z M 252.308594 149.066406 C 253.191406 149.753906 253.351562 151.027344 252.664062 151.90625 C 252.011719 152.746094 250.828125 152.902344 249.953125 152.320312 L 249.730469 152.144531 C 248.949219 151.4375 248.8125 150.253906 249.464844 149.414062 C 250.152344 148.535156 251.425781 148.378906 252.308594 149.066406 Z M 222.953125 189.078125 C 222.539062 189.230469 222.386719 188.832031 220.941406 187.789062 C 220.8125 187.6875 220.742188 187.527344 220.757812 187.371094 C 221.085938 185.589844 220.902344 185.242188 221.328125 185.0625 C 221.511719 184.988281 223.324219 184.242188 223.140625 184.316406 C 223.59375 184.152344 223.726562 184.574219 225.160156 185.59375 C 225.292969 185.695312 225.347656 185.867188 225.332031 186.023438 C 225.304688 186.21875 225.039062 188.171875 225.066406 187.976562 C 224.992188 188.4375 224.578125 188.351562 222.953125 189.078125 Z M 237.402344 168.351562 C 237.003906 168.042969 237.070312 167.296875 237.546875 166.683594 C 238.023438 166.070312 238.734375 165.824219 239.128906 166.132812 C 239.523438 166.441406 239.460938 167.1875 238.980469 167.800781 C 238.503906 168.414062 237.796875 168.660156 237.402344 168.351562 Z M 231.453125 177.300781 C 230.976562 177.914062 230.269531 178.160156 229.875 177.851562 C 229.476562 177.542969 229.542969 176.796875 230.019531 176.183594 C 230.496094 175.570312 231.207031 175.324219 231.601562 175.632812 C 231.996094 175.941406 231.933594 176.691406 231.453125 177.300781 Z M 243.429688 160.464844 C 242.125 159.445312 246.1875 154.316406 247.453125 155.300781 C 248.191406 155.875 247.027344 157.859375 246.417969 158.644531 C 245.300781 160.078125 243.972656 160.886719 243.429688 160.464844 Z M 243.429688 160.464844 " fill-opacity="0.5" fill-rule="nonzero" />
        </g>
      </g>
    </g>
  </g>
  <g clip-path="url(#fa67186f10)">
    <g clip-path="url(#6ab719dd41)">
      <g clip-path="url(#bbbc0d1742)">
        <g clip-path="url(#b196fc9101)">
          <path fill="#000000" d="M 250.589844 179.964844 C 253.59375 180.660156 260.695312 181.359375 265.933594 174.398438 C 271.425781 167.597656 269.015625 160.875 267.605469 158.128906 C 267.324219 157.574219 266.546875 157.574219 266.230469 158.109375 C 262.804688 163.910156 255.519531 159.925781 253.398438 158.574219 C 253.054688 158.355469 252.609375 158.441406 252.363281 158.761719 L 247.476562 165.023438 C 247.230469 165.34375 247.257812 165.796875 247.550781 166.078125 C 249.378906 167.804688 255.023438 173.894531 250.234375 178.632812 C 249.792969 179.070312 249.984375 179.824219 250.589844 179.964844 Z M 263.808594 170.042969 C 264.726562 170.761719 264.894531 172.089844 264.179688 173.007812 C 263.464844 173.925781 262.136719 174.085938 261.214844 173.367188 C 260.296875 172.652344 260.128906 171.324219 260.84375 170.40625 C 261.558594 169.488281 262.886719 169.328125 263.808594 170.042969 Z M 255.375 162.929688 C 257.398438 164.273438 260.964844 165.707031 264.996094 163.15625 C 265.164062 163.046875 265.367188 163.242188 265.253906 163.410156 C 264.136719 165.132812 260.742188 168.945312 255.140625 163.222656 C 254.984375 163.0625 255.1875 162.808594 255.375 162.929688 Z M 252.449219 167.117188 C 252.28125 166.964844 252.476562 166.707031 252.671875 166.820312 C 259.589844 170.851562 256.722656 175.074219 255.324219 176.582031 C 255.1875 176.730469 254.949219 176.582031 255.011719 176.390625 C 256.503906 171.859375 254.242188 168.753906 252.449219 167.117188 Z M 252.449219 167.117188 " fill-opacity="0.5" fill-rule="nonzero" />
        </g>
      </g>
    </g>
  </g>
  <g clip-path="url(#f1f21558fb)">
    <g mask="url(#fb9b33503d)">
      <g transform="matrix(0.087046, 0, 0, 0.0869912, 164.596472, 129.261395)"></g>
    </g>
  </g>
  <g clip-path="url(#cc56f01941)">
    <g mask="url(#f34d77ed64)">
      <g transform="matrix(0.087046, 0, 0, 0.0869912, 143.522162, 129.261395)"></g>
    </g>
  </g>
</svg>